<?xml version="1.0" encoding="utf-8"?>
<svg width="360" height="50" viewBox="0 0 360 50" fill="none" xmlns="http://www.w3.org/2000/svg" xmlns:xlink="http://www.w3.org/1999/xlink">
	<path d="M25.2347 6.10352e-05C31.7626 6.10352e-05 38.5828 1.8628 43.7467 6.47065L38.0957 15.2942C35.3676 12.7452 30.496 10.7844 26.4039 10.7844C16.271 10.7844 12.1789 17.255 12.1789 24.4118C12.1789 33.6275 18.512 39.1177 26.0142 39.1177C29.5217 39.1177 33.0292 37.7452 35.7573 35.5883V31.8628H28.9371V21.8628H46.1825V49.2158H36.3419V47.8432C36.3419 46.8628 36.4393 45.7844 36.4393 45.7844H36.3419C33.419 48.3334 28.45 50.0001 23.6758 50.0001C11.302 50.0001 0 40.6863 0 24.902C0 10.7844 10.5226 6.10352e-05 25.2347 6.10352e-05Z" fill="url(#paint0_linear)"/>
	<path d="M334.93 6.10352e-05C349.797 6.10352e-05 360 10.7844 360 24.7059C360 38.9216 349.797 50.0001 334.93 50.0001C320.063 50.0001 309.861 38.9216 309.861 24.7059C309.861 10.7844 319.966 6.10352e-05 334.93 6.10352e-05ZM334.93 39.2157C342.51 39.2157 347.854 32.9412 347.854 24.7059C347.854 16.7648 342.51 10.7844 334.93 10.7844C327.351 10.7844 322.007 16.7648 322.007 24.7059C321.91 32.9412 327.351 39.2157 334.93 39.2157Z" fill="url(#paint1_linear)"/>
	<path d="M112.043 6.10352e-05H129.311C134.331 6.10352e-05 136.841 0.300062 138.949 1.20006C144.571 3.30006 148.085 8.40006 148.085 15.6001C148.085 20.8001 145.575 26.6001 140.656 29.1001V29.2001C140.656 29.2001 141.359 30.1001 142.563 32.2001L152.201 49.5001H138.648L129.813 32.9001H124.09V49.5001H111.942L112.043 6.10352e-05ZM129.411 22.4001C133.327 22.4001 135.736 20.3001 135.736 16.3001C135.736 13.8001 135.134 12.0001 132.825 11.1001C131.72 10.6001 130.214 10.4001 128.207 10.4001H124.09V22.4001H129.411V22.4001Z" fill="url(#paint2_linear)"/>
	<path d="M156.619 6.10352e-05H168.943V31.0758C168.943 36.255 172.406 38.9443 177.702 38.9443C182.998 38.9443 186.461 36.1554 186.461 31.0758V6.10352e-05H198.785V31.0758C198.785 42.1315 190.535 50.0001 177.804 50.0001C164.971 50.0001 156.721 42.1315 156.721 31.0758V6.10352e-05H156.619Z" fill="url(#paint3_linear)"/>
	<path d="M208.423 6.10352e-05H220.672L234.426 23.1001C236.334 26.3001 238.542 31.5001 238.542 31.5001H238.643C238.643 31.5001 238.041 26.2001 238.041 23.1001V6.10352e-05H250.188V49.4001H237.94L224.186 26.4001C222.278 23.2001 220.069 18.0001 220.069 18.0001H219.969C219.969 18.0001 220.571 23.3001 220.571 26.4001V49.4001H208.423V6.10352e-05V6.10352e-05Z" fill="url(#paint4_linear)"/>
	<path d="M283.21 6.10352e-05C289.752 6.10352e-05 296.586 1.82555 301.761 6.34124L296.098 14.9883C293.364 12.4903 288.483 10.5687 284.382 10.5687C274.228 10.5687 270.127 16.9099 270.127 23.9236C270.127 32.955 276.473 38.3354 283.991 38.3354C287.506 38.3354 291.021 36.9903 293.755 34.8765V31.2256H286.92V21.4256H304.202V48.2314H294.341V46.8863C294.341 45.9256 294.438 44.8687 294.438 44.8687H294.341C291.412 47.3667 286.432 49.0001 281.648 49.0001C269.346 49.0001 258.02 39.8726 258.02 24.404C257.922 10.5687 268.565 6.10352e-05 283.21 6.10352e-05Z" fill="url(#paint5_linear)"/>
	<path d="M76.8035 50.0001C90.6654 50.0001 101.903 38.8072 101.903 25C101.903 11.1929 90.6654 0 76.8035 0C62.9416 0 51.7043 11.1929 51.7043 25C51.7043 38.8072 62.9416 50.0001 76.8035 50.0001Z" fill="url(#paint6_linear)"/>
	<path d="M77.1837 37.6894C84.0097 37.6894 89.5432 32.1778 89.5432 25.3788C89.5432 18.5798 84.0097 13.0682 77.1837 13.0682C70.3578 13.0682 64.8243 18.5798 64.8243 25.3788C64.8243 32.1778 70.3578 37.6894 77.1837 37.6894Z" fill="url(#paint7_linear)"/>
	<path d="M63.3032 46.1175C67.2012 48.5796 71.8597 50.0001 76.8035 50.0001C87.7369 50.0001 97.054 43.0872 100.477 33.3334L88.7827 21.7803L80.036 34.8485L74.2366 30.4925L63.3032 46.1175Z" fill="#40272D"/>
	<defs>
		<linearGradient id="paint0_linear" x1="7.84079" y1="6.43751" x2="47.7134" y2="47.7377" gradientUnits="userSpaceOnUse">
			<stop offset="0.0135684" stop-color="#F15A24"/>
			<stop offset="1" stop-color="#D4145A"/>
		</linearGradient>
		<linearGradient id="paint1_linear" x1="317.429" y1="6.50085" x2="352.747" y2="42.9843" gradientUnits="userSpaceOnUse">
			<stop offset="0.0135684" stop-color="#F15A24"/>
			<stop offset="1" stop-color="#D4145A"/>
		</linearGradient>
		<linearGradient id="paint2_linear" x1="106.759" y1="4.95376" x2="150.7" y2="50.9345" gradientUnits="userSpaceOnUse">
			<stop offset="0.0135684" stop-color="#F15A24"/>
			<stop offset="1" stop-color="#D4145A"/>
		</linearGradient>
		<linearGradient id="paint3_linear" x1="157.692" y1="-1.00651" x2="197.054" y2="40.9464" gradientUnits="userSpaceOnUse">
			<stop offset="0.0135684" stop-color="#F15A24"/>
			<stop offset="1" stop-color="#D4145A"/>
		</linearGradient>
		<linearGradient id="paint4_linear" x1="206.908" y1="1.44796" x2="251.519" y2="48.1286" gradientUnits="userSpaceOnUse">
			<stop offset="0.0135684" stop-color="#F15A24"/>
			<stop offset="1" stop-color="#D4145A"/>
		</linearGradient>
		<linearGradient id="paint5_linear" x1="265.826" y1="6.31145" x2="304.838" y2="47.6313" gradientUnits="userSpaceOnUse">
			<stop offset="0.0135684" stop-color="#F15A24"/>
			<stop offset="1" stop-color="#D4145A"/>
		</linearGradient>
		<linearGradient id="paint6_linear" x1="64.7437" y1="12.4945" x2="99.3989" y2="48.7577" gradientUnits="userSpaceOnUse">
			<stop offset="0.0135684" stop-color="#F15A24"/>
			<stop offset="1" stop-color="#D4145A"/>
		</linearGradient>
		<linearGradient id="paint7_linear" x1="70.1202" y1="19.2527" x2="88.7223" y2="35.5408" gradientUnits="userSpaceOnUse">
			<stop offset="0.0135684" stop-color="#FFFF00"/>
			<stop offset="1" stop-color="#F7931E"/>
		</linearGradient>
	</defs>
</svg>
