<svg width="350" height="50" viewBox="0 0 350 50" fill="none" xmlns="http://www.w3.org/2000/svg" xmlns:xlink="http://www.w3.org/1999/xlink">
	<path d="M24.8016 0.47348C31.2175 0.47348 37.9207 2.27272 42.9959 6.72348L37.4419 15.2462C34.7606 12.7841 29.9726 10.8901 25.9508 10.8901C15.9918 10.8901 11.9699 17.1401 11.9699 24.053C11.9699 32.9545 18.1943 38.2576 25.5677 38.2576C29.0151 38.2576 32.4624 36.9318 35.1436 34.8485V31.25H28.4405V21.5909H45.3899V48.0114H35.7182V46.6856C35.7182 45.7386 35.814 44.697 35.814 44.697H35.7182C32.8454 47.1591 27.9617 48.7689 23.2695 48.7689C11.1081 48.7689 0 39.7727 0 24.5265C0 10.8901 10.342 0.47348 24.8016 0.47348Z" fill="#2D2D2D"/>
	<path d="M325.294 0.852264C339.945 0.852264 350 11.2689 350 24.7159C350 38.447 339.945 49.1477 325.294 49.1477C310.643 49.1477 300.588 38.447 300.588 24.7159C300.588 11.2689 310.547 0.852264 325.294 0.852264ZM325.294 38.7311C332.763 38.7311 338.03 32.6704 338.03 24.7159C338.03 17.0454 332.763 11.2689 325.294 11.2689C317.825 11.2689 312.558 17.0454 312.558 24.7159C312.462 32.6704 317.825 38.7311 325.294 38.7311Z" fill="#2D2D2D"/>
	<path d="M107.825 1.23105H124.296C129.083 1.23105 131.477 1.51514 133.488 2.36741C138.851 4.35605 142.202 9.18559 142.202 16.0038C142.202 20.928 139.809 26.4204 135.116 28.7879V28.8826C135.116 28.8826 135.787 29.7348 136.936 31.7235L146.129 48.106H133.201L124.774 32.3864H119.316V48.106H107.729L107.825 1.23105ZM124.391 22.4432C128.126 22.4432 130.424 20.4545 130.424 16.6667C130.424 14.2992 129.85 12.5947 127.647 11.7424C126.594 11.2689 125.157 11.0795 123.242 11.0795H119.316V22.4432H124.391V22.4432Z" fill="#2D2D2D"/>
	<path d="M150.821 1.23105H162.408V30.7765C162.408 35.7007 165.663 38.2576 170.643 38.2576C175.622 38.2576 178.878 35.606 178.878 30.7765V1.23105H190.465V30.7765C190.465 41.2879 182.709 48.7689 170.739 48.7689C158.673 48.7689 150.917 41.2879 150.917 30.7765V1.23105H150.821Z" fill="#2D2D2D"/>
	<path d="M199.754 1.23105H211.436L224.555 23.106C226.375 26.1363 228.482 31.0606 228.482 31.0606H228.577C228.577 31.0606 228.003 26.0417 228.003 23.106V1.23105H239.59V48.0114H227.907L214.788 26.231C212.969 23.2007 210.862 18.2765 210.862 18.2765H210.766C210.766 18.2765 211.341 23.2954 211.341 26.231V48.0114H199.754V1.23105V1.23105Z" fill="#2D2D2D"/>
	<path d="M271.86 0.47348C278.276 0.47348 284.979 2.27272 290.055 6.72348L284.501 15.2462C281.819 12.7841 277.031 10.8901 273.01 10.8901C263.051 10.8901 259.029 17.1401 259.029 24.053C259.029 32.9545 265.253 38.2576 272.627 38.2576C276.074 38.2576 279.521 36.9318 282.202 34.8485V31.25H275.499V21.5909H292.449V48.0114H282.777V46.6856C282.777 45.7386 282.873 44.697 282.873 44.697H282.777C279.904 47.1591 275.021 48.7689 270.328 48.7689C258.263 48.7689 247.155 39.7727 247.155 24.5265C247.059 10.8901 257.497 0.47348 271.86 0.47348Z" fill="#2D2D2D"/>
	<path d="M75.554 50C89.516 50 100.834 38.8071 100.834 25C100.834 11.1929 89.516 0 75.554 0C61.592 0 50.2736 11.1929 50.2736 25C50.2736 38.8071 61.592 50 75.554 50Z" fill="url(#paint0_linear)"/>
	<path d="M75.937 37.6894C82.8123 37.6894 88.3857 32.1777 88.3857 25.3788C88.3857 18.5798 82.8123 13.0682 75.937 13.0682C69.0618 13.0682 63.4883 18.5798 63.4883 25.3788C63.4883 32.1777 69.0618 37.6894 75.937 37.6894Z" fill="url(#paint1_linear)"/>
	<path d="M61.9562 46.1174C65.8824 48.5795 70.5746 50 75.5541 50C86.5664 50 95.9508 43.0871 99.3981 33.3333L87.6197 21.7803L78.8099 34.8485L72.9686 30.4924L61.9562 46.1174Z" fill="#40272D"/>
	<defs>
		<linearGradient id="paint0_linear" x1="63.4072" y1="12.4945" x2="98.0501" y2="49.0067" gradientUnits="userSpaceOnUse">
			<stop offset="0.0135684" stop-color="#F15A24"/>
			<stop offset="1" stop-color="#D4145A"/>
		</linearGradient>
		<linearGradient id="paint1_linear" x1="68.8225" y1="19.2526" x2="87.4418" y2="35.6736" gradientUnits="userSpaceOnUse">
			<stop offset="0.0135684" stop-color="#FFFF00"/>
			<stop offset="1" stop-color="#F7931E"/>
		</linearGradient>
	</defs>
</svg>

