<svg width="416" height="472" viewBox="0 0 416 472" fill="none" >
	<path d="M118 406C115.794 406 114 407.794 114 410C114 412.206 115.794 414 118 414C120.199 414 121.987 412.216 121.998 410.02H122V408H126V410.039H126.004C126.025 412.226 127.808 414 130 414C132.206 414 134 412.206 134 410C134 407.794 132.206 406 130 406H128V402H130C132.206 402 134 400.206 134 398C134 395.794 132.206 394 130 394C127.794 394 126 395.794 126 398V400H122V397.98H121.998C121.987 395.784 120.199 394 118 394C115.794 394 114 395.794 114 398C114 400.206 115.794 402 118 402H120V406H118ZM120 410C120 411.122 119.121 412 118 412C116.879 412 116 411.122 116 410C116 408.878 116.879 408 118 408H120V410ZM130 408C131.121 408 132 408.878 132 410C132 411.122 131.121 412 130 412C128.879 412 128 411.122 128 410V408H130ZM128 398C128 396.878 128.879 396 130 396C131.121 396 132 396.878 132 398C132 399.122 131.121 400 130 400H128V398ZM118 400C116.879 400 116 399.122 116 398C116 396.878 116.879 396 118 396C119.121 396 120 396.878 120 398V400H118ZM122 402H126V406H122V402Z" fill="#2E3A59"/>
	<path d="M68 408L73 404L68 400V403H59V405H68V408Z" fill="#2E3A59"/>
	<path d="M75 395H66C64.897 395 64 395.897 64 397V401H66V397H75V411H66V407H64V411C64 412.103 64.897 413 66 413H75C76.103 413 77 412.103 77 411V397C77 395.897 76.103 395 75 395Z" fill="#2E3A59"/>
	<path d="M19.002 395H5.002C3.899 395 3.002 395.897 3.002 397V401H5.002V397H19.002V411H5.002V407H3.002V411C3.002 412.103 3.899 413 5.002 413H19.002C20.105 413 21.002 412.103 21.002 411V397C21.002 395.897 20.104 395 19.002 395Z" fill="#2E3A59"/>
	<path d="M11 408L16 404L11 400V403.001H3V405.001H11V408Z" fill="#2E3A59"/>
	<path fill-rule="evenodd" clip-rule="evenodd" d="M180 394C174.47 394 170 398.47 170 404C170 409.53 174.47 414 180 414C185.53 414 190 409.53 190 404C190 398.47 185.53 394 180 394ZM182.59 400L180 402.59L177.41 400L176 401.41L178.59 404L176 406.59L177.41 408L180 405.41L182.59 408L184 406.59L181.41 404L184 401.41L182.59 400ZM172 404C172 408.41 175.59 412 180 412C184.41 412 188 408.41 188 404C188 399.59 184.41 396 180 396C175.59 396 172 399.59 172 404Z" fill="#2E3A59"/>
	<path fill-rule="evenodd" clip-rule="evenodd" d="M226 404C226 398.47 230.47 394 236 394C241.53 394 246 398.47 246 404C246 409.53 241.53 414 236 414C230.47 414 226 409.53 226 404ZM236 402.59L238.59 400L240 401.41L237.41 404L240 406.59L238.59 408L236 405.41L233.41 408L232 406.59L234.59 404L232 401.41L233.41 400L236 402.59Z" fill="#2E3A59"/>
	<path fill-rule="evenodd" clip-rule="evenodd" d="M394 236C394 230.48 398.48 226 404 226C409.52 226 414 230.48 414 236C414 241.52 409.52 246 404 246C398.48 246 394 241.52 394 236ZM405 240V242H403V240H405ZM404 244C399.59 244 396 240.41 396 236C396 231.59 399.59 228 404 228C408.41 228 412 231.59 412 236C412 240.41 408.41 244 404 244ZM400 234C400 231.79 401.79 230 404 230C406.21 230 408 231.79 408 234C408 235.283 407.21 235.973 406.441 236.646C405.711 237.283 405 237.905 405 239H403C403 237.179 403.942 236.457 404.77 235.822C405.42 235.324 406 234.879 406 234C406 232.9 405.1 232 404 232C402.9 232 402 232.9 402 234H400Z" fill="#2E3A59"/>
	<path fill-rule="evenodd" clip-rule="evenodd" d="M404 170C398.48 170 394 174.48 394 180C394 185.52 398.48 190 404 190C409.52 190 414 185.52 414 180C414 174.48 409.52 170 404 170ZM403 187V185H405V187H403ZM406.17 180.17L407.07 179.25C407.64 178.68 408 177.88 408 177C408 174.79 406.21 173 404 173C401.79 173 400 174.79 400 177H402C402 175.9 402.9 175 404 175C405.1 175 406 175.9 406 177C406 177.55 405.78 178.05 405.41 178.41L404.17 179.67C403.45 180.4 403 181.4 403 182.5V183H405C405 181.5 405.45 180.9 406.17 180.17Z" fill="#2E3A59"/>
	<path d="M407.5 296C408.881 296 410 294.881 410 293.5C410 292.119 408.881 291 407.5 291C406.119 291 405 292.119 405 293.5C405 294.881 406.119 296 407.5 296Z" fill="#2E3A59"/>
	<path d="M404 293.5C404 292.685 404.396 291.968 405 291.512C404.581 291.194 404.065 291 403.5 291C402.119 291 401 292.119 401 293.5C401 294.881 402.119 296 403.5 296C404.065 296 404.581 295.806 405 295.488C404.396 295.032 404 294.315 404 293.5Z" fill="#2E3A59"/>
	<path d="M412 284H396C394.897 284 394 284.897 394 286V298C394 299.103 394.897 300 396 300H412C413.103 300 414 299.103 414 298V286C414 284.897 413.103 284 412 284ZM396 298V286H412L412.002 298H396Z" fill="#2E3A59"/>
	<path d="M356 284H340C338.897 284 338 284.897 338 286V298C338 299.103 338.897 300 340 300H356C357.103 300 358 299.103 358 298V286C358 284.897 357.103 284 356 284ZM340 286H356V288H340V286ZM340 298V292H356.001L356.002 298H340Z" fill="#2E3A59"/>
	<path d="M342 294H349V296H342V294Z" fill="#2E3A59"/>
	<path d="M351 338H345C343.897 338 343 338.897 343 340V341H339V343H341V356C341 357.103 341.897 358 343 358H353C354.103 358 355 357.103 355 356V343H357V341H353V340C353 338.897 352.103 338 351 338ZM345 340H351V341H345V340ZM353 356H343V343H353V356Z" fill="#2E3A59"/>
	<path d="M345 345H347V354H345V345Z" fill="#2E3A59"/>
	<path d="M349 345H351V354H349V345Z" fill="#2E3A59"/>
	<path d="M295 338H289C287.897 338 287 338.897 287 340V341H283V343H285V356C285 357.103 285.897 358 287 358H297C298.103 358 299 357.103 299 356V343H301V341H297V340C297 338.897 296.103 338 295 338ZM289 340H295V341H289V340ZM297 356H287V343H297V356Z" fill="#2E3A59"/>
	<path d="M236 338C230.486 338 226 342.486 226 348C226 353.514 230.486 358 236 358C241.514 358 246 353.514 246 348C246 342.486 241.514 338 236 338ZM236 356C231.589 356 228 352.411 228 348C228 343.589 231.589 340 236 340C240.411 340 244 343.589 244 348C244 352.411 240.411 356 236 356Z" fill="#2E3A59"/>
	<path d="M232.5 348C233.328 348 234 347.328 234 346.5C234 345.672 233.328 345 232.5 345C231.672 345 231 345.672 231 346.5C231 347.328 231.672 348 232.5 348Z" fill="#2E3A59"/>
	<path d="M239.493 347.986C240.318 347.986 240.986 347.318 240.986 346.493C240.986 345.668 240.318 345 239.493 345C238.668 345 238 345.668 238 346.493C238 347.318 238.668 347.986 239.493 347.986Z" fill="#2E3A59"/>
	<path fill-rule="evenodd" clip-rule="evenodd" d="M233.711 350.636C234.315 350.234 235.075 350 236 350C236.925 350 237.685 350.234 238.289 350.636C238.887 351.033 239.273 351.556 239.519 352.049C239.764 352.538 239.882 353.014 239.94 353.361C239.969 353.536 239.984 353.684 239.992 353.793C239.995 353.847 239.998 353.892 239.999 353.926C239.999 353.942 240 353.957 240 353.968L240 353.982L240 353.988L240 353.99L240 353.991C240 353.992 240 353.992 239 353.992C238 353.992 238 353.993 238 353.993L238 353.996L238 353.998C238 353.999 238 354 238 354L238 353.992C237.999 353.982 237.999 353.962 237.997 353.935C237.993 353.88 237.984 353.794 237.967 353.689C237.931 353.473 237.861 353.201 237.731 352.942C237.602 352.686 237.426 352.46 237.18 352.296C236.94 352.137 236.575 351.996 236 351.996C235.425 351.996 235.06 352.137 234.82 352.296C234.574 352.46 234.398 352.686 234.269 352.942C234.139 353.201 234.069 353.473 234.033 353.689C234.016 353.794 234.007 353.88 234.003 353.935C234.001 353.962 234.001 353.982 234 353.992L234 354C234 354 234 353.999 234 353.998L234 353.996L234 353.994C234 353.994 234 353.992 233 353.992C232 353.992 232 353.992 232 353.991L232 353.99L232 353.988L232 353.982L232 353.968C232 353.957 232.001 353.942 232.001 353.926C232.002 353.892 232.005 353.847 232.008 353.793C232.016 353.684 232.031 353.536 232.06 353.361C232.118 353.014 232.236 352.538 232.481 352.049C232.727 351.556 233.113 351.033 233.711 350.636Z" fill="#2E3A59"/>
	<path d="M180 338C174.486 338 170 342.486 170 348C170 353.514 174.486 358 180 358C185.514 358 190 353.514 190 348C190 342.486 185.514 338 180 338ZM180 356C175.589 356 172 352.411 172 348C172 343.589 175.589 340 180 340C184.411 340 188 343.589 188 348C188 352.411 184.411 356 180 356Z" fill="#2E3A59"/>
	<path d="M176.5 348C177.328 348 178 347.328 178 346.5C178 345.672 177.328 345 176.5 345C175.672 345 175 345.672 175 346.5C175 347.328 175.672 348 176.5 348Z" fill="#2E3A59"/>
	<path d="M183.493 347.986C184.318 347.986 184.986 347.318 184.986 346.493C184.986 345.668 184.318 345 183.493 345C182.668 345 182 345.668 182 346.493C182 347.318 182.668 347.986 183.493 347.986Z" fill="#2E3A59"/>
	<path d="M176 351H184V353H176V351Z" fill="#2E3A59"/>
	<path d="M124 338C118.486 338 114 342.486 114 348C114 353.514 118.486 358 124 358C129.514 358 134 353.514 134 348C134 342.486 129.514 338 124 338ZM124 356C119.589 356 116 352.411 116 348C116 343.589 119.589 340 124 340C128.411 340 132 343.589 132 348C132 352.411 128.411 356 124 356Z" fill="#2E3A59"/>
	<path d="M120.5 348C121.328 348 122 347.328 122 346.5C122 345.672 121.328 345 120.5 345C119.672 345 119 345.672 119 346.5C119 347.328 119.672 348 120.5 348Z" fill="#2E3A59"/>
	<path d="M127.493 347.986C128.318 347.986 128.986 347.318 128.986 346.493C128.986 345.668 128.318 345 127.493 345C126.668 345 126 345.668 126 346.493C126 347.318 126.668 347.986 127.493 347.986Z" fill="#2E3A59"/>
	<path d="M124 354C128 354 129 350 129 350H119C119 350 120 354 124 354Z" fill="#2E3A59"/>
	<path d="M291.971 302C291.67 302 291.369 302 291.068 302C285.552 301.497 281.541 296.573 282.042 291.045C282.443 286.221 286.254 282.402 291.068 282C291.47 282 291.871 282.201 292.071 282.503C292.272 282.804 292.272 283.307 291.971 283.608C290.968 284.915 290.667 286.523 290.868 288.131C291.068 289.739 291.971 291.146 293.275 292.05C295.381 293.658 298.289 293.658 300.395 292.05C300.696 291.849 301.097 291.749 301.499 291.95C301.799 292.151 302 292.553 302 292.955C301.799 295.668 300.496 298.08 298.39 299.789C296.484 301.196 294.278 302 291.971 302ZM289.163 284.312C286.254 285.317 284.249 287.93 283.948 291.146C283.547 295.568 286.756 299.487 291.169 299.889C293.275 300.09 295.381 299.487 296.986 298.08C298.089 297.176 298.891 295.97 299.392 294.663C296.885 295.568 294.077 295.166 291.871 293.558C290.166 292.251 289.063 290.442 288.661 288.332C288.561 286.925 288.762 285.618 289.163 284.312Z" fill="#2E3A59"/>
	<path d="M230.993 292C230.993 294.761 233.239 297.007 236 297.007C238.761 297.007 241.007 294.761 241.007 292C241.007 289.239 238.761 286.993 236 286.993C233.239 286.993 230.993 289.239 230.993 292ZM236 288.993C237.658 288.993 239.007 290.342 239.007 292C239.007 293.658 237.658 295.007 236 295.007C234.342 295.007 232.993 293.658 232.993 292C232.993 290.342 234.342 288.993 236 288.993ZM234.998 299H236.998V302H234.998V299ZM234.998 282H236.998V285H234.998V282ZM225.998 291H228.998V293H225.998V291ZM242.998 291H245.998V293H242.998V291Z" fill="#2E3A59"/>
	<path d="M228.219 298.363L230.34 296.241L231.754 297.655L229.634 299.777L228.219 298.363Z" fill="#2E3A59"/>
	<path d="M240.24 286.344L242.362 284.222L243.777 285.636L241.655 287.758L240.24 286.344Z" fill="#2E3A59"/>
	<path d="M230.342 287.759L228.221 285.637L229.636 284.223L231.756 286.345L230.342 287.759Z" fill="#2E3A59"/>
	<path d="M243.776 298.364L242.362 299.778L240.24 297.656L241.654 296.242L243.776 298.364Z" fill="#2E3A59"/>
	<path d="M177 300H183V302H177V300ZM184.906 293.712C185.936 292.506 187 291.259 187 289C187 285.141 183.859 282 180 282C176.141 282 173 285.141 173 289C173 291.285 174.067 292.528 175.101 293.73C175.459 294.148 175.83 294.581 176.185 295.079C176.329 295.285 176.565 296.075 176.776 297L177 299C179.667 299 180.333 299 183 299L183.226 297C183.439 296.073 183.676 295.281 183.819 295.075C184.171 294.572 184.545 294.135 184.906 293.712ZM182.182 293.925C181.748 294.542 181.386 296 181.176 297H178.825C178.616 295.998 178.253 294.537 177.814 293.92C177.407 293.348 176.988 292.859 176.618 292.428C175.644 291.294 175 290.544 175 289C175 286.243 177.243 284 180 284C182.757 284 185 286.243 185 289C185 290.521 184.357 291.274 183.385 292.413C183.012 292.851 182.589 293.346 182.182 293.925Z" fill="#2E3A59"/>
	<path d="M119 285C117.897 285 117 285.897 117 287V297C117 298.103 117.897 299 119 299H129C130.103 299 131 298.103 131 297V287C131 285.897 130.103 285 129 285H119ZM119 297V287H129L129.002 297H119Z" fill="#2E3A59"/>
	<path d="M65 289H71V295H65V289Z" fill="#2E3A59"/>
	<path d="M75 297V287C75 285.897 74.103 285 73 285H63C61.897 285 61 285.897 61 287V297C61 298.103 61.897 299 63 299H73C74.103 299 75 298.103 75 297ZM63 287H73L73.002 297H63V287Z" fill="#2E3A59"/>
	<path d="M7 285C5.897 285 5 285.897 5 287V297C5 298.103 5.897 299 7 299H17C18.103 299 19 298.103 19 297V287C19 285.897 18.103 285 17 285H7ZM7 297V287H17L17.002 297H7Z" fill="#2E3A59"/>
	<path d="M10.996 292.556L9.7 291.285L8.3 292.715L11.004 295.362L15.703 290.711L14.297 289.289L10.996 292.556Z" fill="#2E3A59"/>
	<path fill-rule="evenodd" clip-rule="evenodd" d="M12 353C14.7614 353 17 350.761 17 348C17 345.239 14.7614 343 12 343C9.23858 343 7 345.239 7 348C7 350.761 9.23858 353 12 353ZM12 355C15.866 355 19 351.866 19 348C19 344.134 15.866 341 12 341C8.13401 341 5 344.134 5 348C5 351.866 8.13401 355 12 355Z" fill="#2E3A59"/>
	<path d="M71 348C71 349.657 69.6569 351 68 351C66.3431 351 65 349.657 65 348C65 346.343 66.3431 345 68 345C69.6569 345 71 346.343 71 348Z" fill="#2E3A59"/>
	<path fill-rule="evenodd" clip-rule="evenodd" d="M68 355C71.866 355 75 351.866 75 348C75 344.134 71.866 341 68 341C64.134 341 61 344.134 61 348C61 351.866 64.134 355 68 355ZM68 353C70.7614 353 73 350.761 73 348C73 345.239 70.7614 343 68 343C65.2386 343 63 345.239 63 348C63 350.761 65.2386 353 68 353Z" fill="#2E3A59"/>
	<path d="M125 117H134V119H125V117ZM114 119H121V121H123V115H121V117H114V119ZM121 129H134V131H121V129ZM131 123H134V125H131V123ZM129 127V121.012H127V123H114V125H127V127H129ZM119 133V127H117V129H114V131H117V133H119Z" fill="#2E3A59"/>
	<path fill-rule="evenodd" clip-rule="evenodd" d="M65.5 121.5C67.0855 121.5 68.4248 120.446 68.8551 119H78V117H68.8551C68.4248 115.554 67.0855 114.5 65.5 114.5C63.567 114.5 62 116.067 62 118C62 119.933 63.567 121.5 65.5 121.5ZM67 118C67 118.828 66.3284 119.5 65.5 119.5C64.6716 119.5 64 118.828 64 118C64 117.172 64.6716 116.5 65.5 116.5C66.3284 116.5 67 117.172 67 118Z" fill="#2E3A59"/>
	<path fill-rule="evenodd" clip-rule="evenodd" d="M72.5 127.5C74.0855 127.5 75.4248 126.446 75.8551 125H78V123H75.8551C75.4248 121.554 74.0855 120.5 72.5 120.5C70.567 120.5 69 122.067 69 124C69 125.933 70.567 127.5 72.5 127.5ZM72.5 125.5C73.3284 125.5 74 124.828 74 124C74 123.172 73.3284 122.5 72.5 122.5C71.6716 122.5 71 123.172 71 124C71 124.828 71.6716 125.5 72.5 125.5Z" fill="#2E3A59"/>
	<path fill-rule="evenodd" clip-rule="evenodd" d="M63.5 133.5C65.433 133.5 67 131.933 67 130C67 128.067 65.433 126.5 63.5 126.5C61.9145 126.5 60.5752 127.554 60.1449 129H58V131H60.1449C60.5752 132.446 61.9145 133.5 63.5 133.5ZM63.5 131.5C64.3284 131.5 65 130.828 65 130C65 129.172 64.3284 128.5 63.5 128.5C62.6716 128.5 62 129.172 62 130C62 130.828 62.6716 131.5 63.5 131.5Z" fill="#2E3A59"/>
	<path d="M68 129H78V131H68V129Z" fill="#2E3A59"/>
	<path d="M68 123H58V125H68V123Z" fill="#2E3A59"/>
	<path d="M61 117H58V119H61V117Z" fill="#2E3A59"/>
	<path fill-rule="evenodd" clip-rule="evenodd" d="M13 124C11.1362 124 9.57006 122.725 9.12602 121H2V119H9.12602C9.57006 117.275 11.1362 116 13 116C15.2091 116 17 117.791 17 120C17 122.209 15.2091 124 13 124ZM15 120C15 121.105 14.1046 122 13 122C11.8954 122 11 121.105 11 120C11 118.895 11.8954 118 13 118C14.1046 118 15 118.895 15 120Z" fill="#2E3A59"/>
	<path d="M18 119H22V121H18V119Z" fill="#2E3A59"/>
	<path fill-rule="evenodd" clip-rule="evenodd" d="M8 132C6.13616 132 4.57006 130.725 4.12602 129H2V127H4.12602C4.57006 125.275 6.13616 124 8 124C10.2091 124 12 125.791 12 128C12 130.209 10.2091 132 8 132ZM10 128C10 129.105 9.10457 130 8 130C6.89543 130 6 129.105 6 128C6 126.895 6.89543 126 8 126C9.10457 126 10 126.895 10 128Z" fill="#2E3A59"/>
	<path d="M13 129H22V127H13V129Z" fill="#2E3A59"/>
	<path fill-rule="evenodd" clip-rule="evenodd" d="M180 173C179.66 172.609 179.265 172.267 178.828 171.982C177.863 171.353 176.698 171 175.5 171C172.42 171 170 173.374 170 176.395C170 177.469 170.256 178.488 170.694 179.458C172.053 182.469 175.166 185.009 177.845 187.196C178.617 187.826 179.353 188.426 180 189C180.647 188.426 181.383 187.826 182.155 187.196C184.834 185.009 187.947 182.469 189.306 179.458C189.744 178.488 190 177.469 190 176.395C190 173.374 187.58 171 184.5 171C183.302 171 182.137 171.353 181.172 171.982C180.735 172.267 180.34 172.609 180 173ZM180 186.37C180.323 186.102 180.653 185.833 180.982 185.563C181.261 185.335 181.54 185.107 181.814 184.881C182.909 183.977 183.981 183.058 184.931 182.095C186.106 180.903 186.979 179.756 187.488 178.624C187.823 177.877 188 177.136 188 176.395C188 174.515 186.512 173 184.5 173C183.312 173 182.203 173.514 181.51 174.311L180 176.051L178.49 174.311C177.797 173.514 176.688 173 175.5 173C173.488 173 172 174.515 172 176.395C172 177.136 172.177 177.877 172.512 178.624C173.021 179.756 173.894 180.903 175.069 182.095C176.019 183.058 177.091 183.977 178.186 184.881C178.46 185.107 178.739 185.335 179.018 185.563C179.347 185.833 179.677 186.102 180 186.37Z" fill="#2E3A59"/>
	<path fill-rule="evenodd" clip-rule="evenodd" d="M180 226C174.48 226 170 230.48 170 236C170 241.52 174.48 246 180 246C185.52 246 190 241.52 190 236C190 230.48 185.52 226 180 226ZM180 244C175.59 244 172 240.41 172 236C172 231.59 175.59 228 180 228C184.41 228 188 231.59 188 236C188 240.41 184.41 244 180 244ZM178 238.17L184.59 231.58L186 233L178 241L174 237L175.41 235.59L178 238.17Z" fill="#2E3A59"/>
	<path fill-rule="evenodd" clip-rule="evenodd" d="M114 236C114 230.48 118.48 226 124 226C129.52 226 134 230.48 134 236C134 241.52 129.52 246 124 246C118.48 246 114 241.52 114 236ZM122 238.17L128.59 231.58L130 233L122 241L118 237L119.41 235.59L122 238.17Z" fill="#2E3A59"/>
	<path d="M299 227H285C283.897 227 283 227.897 283 229V243C283 244.103 283.897 245 285 245H299C300.103 245 301 244.103 301 243V229C301 227.897 300.103 227 299 227ZM285 243V229H299L299.002 243H285Z" fill="#2E3A59"/>
	<path d="M290 238L289 237L286 241H298L293 234L290 238Z" fill="#2E3A59"/>
	<path d="M288.5 235C289.328 235 290 234.328 290 233.5C290 232.672 289.328 232 288.5 232C287.672 232 287 232.672 287 233.5C287 234.328 287.672 235 288.5 235Z" fill="#2E3A59"/>
	<path fill-rule="evenodd" clip-rule="evenodd" d="M351.5 173C352.17 173 352.77 173.33 353.13 173.84L357.5 180L353.13 186.16C352.77 186.67 352.17 187 351.5 187L340.5 186.99C339.4 186.99 338.5 186.1 338.5 185V175C338.5 173.9 339.4 173.01 340.5 173.01L351.5 173ZM340.5 185H351.5L355.05 180L351.5 175H340.5V185Z" fill="#2E3A59"/>
	<path fill-rule="evenodd" clip-rule="evenodd" d="M292 171C288.13 171 285 174.13 285 178C285 183.25 292 189 292 189C292 189 299 183.25 299 178C299 174.13 295.87 171 292 171ZM292 181C293.657 181 295 179.657 295 178C295 176.343 293.657 175 292 175C290.343 175 289 176.343 289 178C289 179.657 290.343 181 292 181Z" fill="#2E3A59"/>
	<path d="M236.707 183.536L238.121 184.95L236 187.071C234.047 189.024 230.882 189.024 228.929 187.071C226.976 185.118 226.976 181.953 228.929 180L231.05 177.879L232.465 179.293L230.343 181.414C229.172 182.586 229.172 184.485 230.343 185.657C231.515 186.828 233.414 186.828 234.586 185.657L236.707 183.536Z" fill="#2E3A59"/>
	<path d="M235.293 176.464L233.879 175.05L236 172.929C237.953 170.976 241.118 170.976 243.071 172.929C245.024 174.882 245.024 178.047 243.071 180L240.95 182.121L239.536 180.707L241.657 178.586C242.828 177.414 242.828 175.515 241.657 174.343C240.485 173.172 238.586 173.172 237.414 174.343L235.293 176.464Z" fill="#2E3A59"/>
	<path d="M238.828 175.757L231.757 182.828L233.172 184.243L240.243 177.172L238.828 175.757Z" fill="#2E3A59"/>
	<path d="M229 241H243V243H229V241Z" fill="#2E3A59"/>
	<path d="M240.59 229L234 235.59L231.41 233.01L230 234.42L234 238.42L242 230.42L240.59 229Z" fill="#2E3A59"/>
	<path d="M124 189C120.387 185.773 114 181.76 114 176.395C114 173.374 116.42 171 119.5 171C121.24 171 122.91 171.744 124 173C125.09 171.744 126.76 171 128.5 171C131.58 171 134 173.374 134 176.395C134 181.751 127.621 185.791 124 189Z" fill="#2E3A59"/>
	<path d="M292 394C286.486 394 282 398.486 282 404C282 409.514 286.486 414 292 414C297.514 414 302 409.514 302 404C302 398.486 297.514 394 292 394ZM292 412C287.589 412 284 408.411 284 404C284 399.589 287.589 396 292 396C296.411 396 300 399.589 300 404C300 408.411 296.411 412 292 412Z" fill="#2E3A59"/>
	<path d="M293 399H291V405H297V403H293V399Z" fill="#2E3A59"/>
	<path d="M404 397C399.589 397 396 400.589 396 405C396 409.411 399.589 413 404 413C408.411 413 412 409.411 412 405C412 400.589 408.411 397 404 397ZM404 411C400.691 411 398 408.309 398 405C398 401.691 400.691 399 404 399C407.309 399 410 401.691 410 405C410 408.309 407.309 411 404 411Z" fill="#2E3A59"/>
	<path d="M403 401H405V406H403V401ZM401 394H407V396H401V394Z" fill="#2E3A59"/>
	<path d="M411.293 399.707L409.293 397.707L410.707 396.293L412.707 398.293L411.293 399.707Z" fill="#2E3A59"/>
	<path d="M348 396C343.121 396 339 400.121 339 405C339 409.879 343.121 414 348 414C352.879 414 357 409.879 357 405C357 400.121 352.879 396 348 396ZM348 412C344.206 412 341 408.794 341 405C341 401.206 344.206 398 348 398C351.794 398 355 401.206 355 405C355 408.794 351.794 412 348 412Z" fill="#2E3A59"/>
	<path d="M349 404V400H347V406H353V404H349Z" fill="#2E3A59"/>
	<path d="M353.284 395.707L354.696 394.291L357.706 397.292L356.293 398.708L353.284 395.707Z" fill="#2E3A59"/>
	<path d="M342.698 395.707L339.708 398.706L338.291 397.294L341.282 394.295L342.698 395.707Z" fill="#2E3A59"/>
	<path d="M12 452C7.12105 452 3.00005 456.121 3.00005 461C3.00005 465.879 7.12105 470 12 470C16.879 470 21 465.879 21 461C21 456.121 16.879 452 12 452ZM12 468C8.20605 468 5.00005 464.794 5.00005 461C5.00005 457.206 8.20605 454 12 454C15.794 454 19 457.206 19 461C19 464.794 15.794 468 12 468Z" fill="#2E3A59"/>
	<path d="M13 456H11V460H7.00005V462H11V466H13V462H17V460H13V456Z" fill="#2E3A59"/>
	<path d="M20.2924 454.708L17.2823 451.707L18.6943 450.291L21.7043 453.291L20.2924 454.708Z" fill="#2E3A59"/>
	<path d="M5.28247 450.294L6.69869 451.706L3.70833 454.705L2.29211 453.293L5.28247 450.294Z" fill="#2E3A59"/>
	<path d="M403.706 125.707L409.999 119.414V123H411.999V116H404.999V118H408.584L402.291 124.293L403.706 125.707Z" fill="#2E3A59"/>
	<path d="M411.001 130V126H409.001V130H398.001V119H402.001V117H398.001C396.897 117 396.001 117.895 396.001 119V130C396.001 131.105 396.897 132 398.001 132H409.001C410.106 132 411.001 131.105 411.001 130Z" fill="#2E3A59"/>
	<path d="M351 122C351 123.657 349.657 125 348 125C346.343 125 345 123.657 345 122C345 120.343 346.343 119 348 119C349.657 119 351 120.343 351 122Z" fill="#2E3A59"/>
	<path fill-rule="evenodd" clip-rule="evenodd" d="M341 122C341 127.25 348 133 348 133C348 133 355 127.25 355 122C355 118.13 351.87 115 348 115C344.13 115 341 118.13 341 122ZM343 122C343 119.235 345.235 117 348 117C350.765 117 353 119.235 353 122C353 123.861 351.684 126.13 349.965 128.186C349.271 129.017 348.573 129.74 348 130.297C347.427 129.74 346.729 129.017 346.035 128.186C344.316 126.13 343 123.861 343 122Z" fill="#2E3A59"/>
	<path d="M290 127V129H287C284.239 129 282 126.761 282 124C282 121.239 284.239 119 287 119H290V121H287C285.343 121 284 122.343 284 124C284 125.657 285.343 127 287 127H290Z" fill="#2E3A59"/>
	<path d="M294 121V119H297C299.761 119 302 121.239 302 124C302 126.761 299.761 129 297 129H294V127H297C298.657 127 300 125.657 300 124C300 122.343 298.657 121 297 121H294Z" fill="#2E3A59"/>
	<path d="M297 123H287V125H297V123Z" fill="#2E3A59"/>
	<path d="M234.232 124.354L240.596 117.99L242.01 119.404L235.646 125.768L234.232 124.354Z" fill="#2E3A59"/>
	<path d="M232.818 128.596L227.868 123.646L226.454 125.061L231.404 130.01L232.818 128.596Z" fill="#2E3A59"/>
	<path d="M235.646 127.182L232.111 123.646L230.697 125.061L235.646 130.01L245.546 120.111L244.132 118.697L235.646 127.182Z" fill="#2E3A59"/>
	<path d="M179 114L179 126.17L175.41 122.59L174 124L180 130L186 124L184.59 122.59L181 126.17L181 114L179 114Z" fill="#2E3A59"/>
	<path d="M173 132H187V134H173V132Z" fill="#2E3A59"/>
	<path d="M301.707 76.2929L283.707 58.2929L282.293 59.7071L285.745 63.1589C283.591 63.7158 282 65.6721 282 68C282 70.7614 284.239 73 287 73H290V71H287C285.343 71 284 69.6569 284 68C284 66.3431 285.343 65 287 65H287.586L289.586 67H287V69H291.586L300.293 77.7071L301.707 76.2929Z" fill="#2E3A59"/>
	<path d="M298.708 70.4669L300.136 71.8948C301.273 70.9783 302 69.5741 302 68C302 65.2386 299.761 63 297 63H294V65H297C298.657 65 300 66.3431 300 68C300 69.0224 299.489 69.9253 298.708 70.4669Z" fill="#2E3A59"/>
	<path d="M231.857 70.07C231.233 70.642 230.41 71 229.5 71C227.57 71 226 69.43 226 67.5C226 65.57 227.57 64 229.5 64C230.729 64 231.808 64.64 232.433 65.602L238.117 62.353C238.048 62.078 238 61.796 238 61.5C238 59.57 239.57 58 241.5 58C243.43 58 245 59.57 245 61.5C245 63.43 243.43 65 241.5 65C240.59 65 239.767 64.642 239.142 64.07L232.991 67.585C232.986 67.851 232.946 68.106 232.883 68.353L239.143 71.93C239.767 71.358 240.59 71 241.5 71C243.43 71 245 72.57 245 74.5C245 76.43 243.43 78 241.5 78C239.57 78 238 76.43 238 74.5C238 74.204 238.048 73.922 238.117 73.647L231.857 70.07Z" fill="#2E3A59"/>
	<path d="M173.5 71C174.41 71 175.233 70.642 175.857 70.07L182.117 73.647C182.048 73.922 182 74.204 182 74.5C182 76.43 183.57 78 185.5 78C187.43 78 189 76.43 189 74.5C189 72.57 187.43 71 185.5 71C184.59 71 183.767 71.358 183.143 71.93L176.883 68.353C176.946 68.106 176.986 67.851 176.991 67.585L183.142 64.07C183.767 64.642 184.59 65 185.5 65C187.43 65 189 63.43 189 61.5C189 59.57 187.43 58 185.5 58C183.57 58 182 59.57 182 61.5C182 61.796 182.048 62.078 182.117 62.353L176.433 65.602C175.808 64.64 174.729 64 173.5 64C171.57 64 170 65.57 170 67.5C170 69.43 171.57 71 173.5 71ZM185.5 73C186.327 73 187 73.673 187 74.5C187 75.327 186.327 76 185.5 76C184.673 76 184 75.327 184 74.5C184 73.673 184.673 73 185.5 73ZM185.5 60C186.327 60 187 60.673 187 61.5C187 62.327 186.327 63 185.5 63C184.673 63 184 62.327 184 61.5C184 60.673 184.673 60 185.5 60ZM173.5 66C174.327 66 175 66.673 175 67.5C175 68.327 174.327 69 173.5 69C172.673 69 172 68.327 172 67.5C172 66.673 172.673 66 173.5 66Z" fill="#2E3A59"/>
	<path fill-rule="evenodd" clip-rule="evenodd" d="M338 6C338 4.89543 338.895 4 340 4H356C357.105 4 358 4.89543 358 6V18C358 19.1046 357.105 20 356 20H340C338.895 20 338 19.1046 338 18V6ZM356 7.8685V18H340V7.86851L348 13.2018L356 7.8685ZM355.197 6H340.803L348 10.7981L355.197 6Z" fill="#2E3A59"/>
	<path fill-rule="evenodd" clip-rule="evenodd" d="M282 9.13237C282 8.42984 282.369 7.77883 282.971 7.41738L290.971 2.61738C291.604 2.23736 292.396 2.23736 293.029 2.61738L301.029 7.41738C301.631 7.77883 302 8.42984 302 9.13237V20C302 21.1046 301.105 22 300 22H284C282.895 22 282 21.1046 282 20V9.13237ZM300 9.8685V20H284V9.86851L292 15.2018L300 9.8685ZM298.684 8.34247L292 4.33237L285.316 8.34247L292 12.7981L298.684 8.34247Z" fill="#2E3A59"/>
	<path d="M242 8C240.9 8 240 8.9 240 10C240 11.1 240.9 12 242 12C243.1 12 244 11.1 244 10C244 8.9 243.1 8 242 8Z" fill="#2E3A59"/>
	<path d="M230 12C228.9 12 228 12.9 228 14C228 15.1 228.9 16 230 16C231.1 16 232 15.1 232 14C232 12.9 231.1 12 230 12Z" fill="#2E3A59"/>
	<path d="M234 12C234 10.9 234.9 10 236 10C237.1 10 238 10.9 238 12C238 13.1 237.1 14 236 14C234.9 14 234 13.1 234 12Z" fill="#2E3A59"/>
	<path d="M173.99 11.2929L178.939 16.2426L177.525 17.6569L172.575 12.7071L173.99 11.2929Z" fill="#2E3A59"/>
	<path d="M177.525 14.8284L186.01 6.34314L187.425 7.75735L178.939 16.2426L177.525 14.8284Z" fill="#2E3A59"/>
	<path d="M68.005 4C70.2151 4 72.2128 4.89397 73.6585 6.34L76 4V11H68.9956L72.2176 7.78C71.1379 6.6909 69.6585 6.00114 67.9991 6C65.39 6.00251 63.1714 7.67175 62.3515 10H62.3338C62.2198 10.3217 62.1324 10.6559 62.0745 11H60.0617C60.5524 7.05239 63.9111 4 67.995 4H68.005Z" fill="#2E3A59"/>
	<path d="M60 13V20L62.3415 17.66C63.7872 19.106 65.7849 20 67.995 20L68.005 20C72.0889 20 75.4476 16.9476 75.9383 13H73.9255C73.8676 13.3441 73.7802 13.6783 73.6662 14H73.6485C72.8287 16.3282 70.6101 17.9974 68.0012 18C66.3417 17.9989 64.8622 17.3092 63.7824 16.22L67.0044 13H60Z" fill="#2E3A59"/>
	<path d="M17.6485 6.35C16.1976 4.9 14.2064 4 11.995 4C7.57223 4 4 7.58 4 12C4 16.42 7.57223 20 11.995 20C15.7273 20 18.8393 17.45 19.7298 14H17.6485C16.828 16.33 14.6066 18 11.995 18C8.68293 18 5.99124 15.31 5.99124 12C5.99124 8.69 8.68293 6 11.995 6C13.656 6 15.137 6.69 16.2176 7.78L12.9956 11H20V4L17.6485 6.35Z" fill="#2E3A59"/>
	<path d="M66 467H69V470H66V467ZM68 450C73.35 450.22 75.68 455.62 72.5 459.67C71.67 460.67 70.33 461.33 69.67 462.17C69 463 69 464 69 465H66C66 463.33 66 461.92 66.67 460.92C67.33 459.92 68.67 459.33 69.5 458.67C71.92 456.43 71.32 453.26 68 453C67.2044 453 66.4413 453.316 65.8787 453.879C65.3161 454.441 65 455.204 65 456H62C62 454.409 62.6321 452.883 63.7574 451.757C64.8826 450.632 66.4087 450 68 450Z" fill="#2E3A59"/>
	<path fill-rule="evenodd" clip-rule="evenodd" d="M400.032 350.554L406.554 344.032C406.202 343.436 406 342.742 406 342C406 339.791 407.791 338 410 338C412.209 338 414 339.791 414 342C414 344.209 412.209 346 410 346C409.258 346 408.564 345.798 407.968 345.446L401.446 351.968C401.798 352.564 402 353.258 402 354C402 356.209 400.209 358 398 358C395.791 358 394 356.209 394 354C394 351.791 395.791 350 398 350C398.742 350 399.436 350.202 400.032 350.554ZM398 356C399.105 356 400 355.105 400 354C400 352.895 399.105 352 398 352C396.895 352 396 352.895 396 354C396 355.105 396.895 356 398 356ZM412 342C412 343.105 411.105 344 410 344C408.895 344 408 343.105 408 342C408 340.895 408.895 340 410 340C411.105 340 412 340.895 412 342Z" fill="#2E3A59"/>
	<path fill-rule="evenodd" clip-rule="evenodd" d="M114 12C114 17.5228 118.477 22 124 22C129.523 22 134 17.5228 134 12C134 6.47715 129.523 2 124 2C118.477 2 114 6.47715 114 12ZM132.182 12C132.182 16.5187 128.519 20.1818 124 20.1818C119.481 20.1818 115.818 16.5187 115.818 12C115.818 7.48131 119.481 3.81818 124 3.81818C128.519 3.81818 132.182 7.48131 132.182 12Z" fill="#2E3A59"/>
	<path fill-rule="evenodd" clip-rule="evenodd" d="M122.5 13.2322L127.793 7.93934L129.207 9.35355L122.5 16.0607L118.793 12.3536L120.207 10.9393L122.5 13.2322Z" fill="#2E3A59"/>
	<path fill-rule="evenodd" clip-rule="evenodd" d="M338 75.7208L345.108 78.0901L352.077 74.1078L358 76.477V60.323L351.923 57.8922L344.892 61.9099L338 59.6126V75.7208ZM350 72.9911L346 75.2768V63.5803L350 61.2946V72.9911ZM352 71.923L356 73.523V61.677L352.077 60.1078L352 60.1518V71.923ZM340 74.2793L344 75.6126V63.7208L340 62.3874V74.2793Z" fill="#2E3A59"/>
	<path fill-rule="evenodd" clip-rule="evenodd" d="M12.78 228.05L13.5 229.5H18.5C19.05 229.5 19.5 229.95 19.5 230.5V238.5C19.5 239.05 19.05 239.5 18.5 239.5H13.11C12.74 239.5 12.39 239.29 12.22 238.95L11.5 237.5H6.5V243.5C6.5 244.05 6.05 244.5 5.5 244.5C4.95 244.5 4.5 244.05 4.5 243.5V228.5C4.5 227.95 4.95 227.5 5.5 227.5H11.88C12.26 227.5 12.61 227.71 12.78 228.05ZM13.5 237.5H17.5V231.5H12.5L11.5 229.5H6.5V235.5H12.5L13.5 237.5Z" fill="#2E3A59"/>
	<path d="M69.9 229.5L69.66 228.3C69.57 227.84 69.16 227.5 68.68 227.5H61.5C60.95 227.5 60.5 227.95 60.5 228.5V243.5C60.5 244.05 60.95 244.5 61.5 244.5C62.05 244.5 62.5 244.05 62.5 243.5V237.5H68.1L68.34 238.7C68.43 239.17 68.84 239.5 69.32 239.5H74.5C75.05 239.5 75.5 239.05 75.5 238.5V230.5C75.5 229.95 75.05 229.5 74.5 229.5H69.9Z" fill="#2E3A59"/>
	<path d="M403.99 72.47L396.62 66.74L395 68L404 75L413 68L411.37 66.73L403.99 72.47Z" fill="#2E3A59"/>
	<path d="M403.99 76.74L396.62 71.01L395 72.27L404 79.27L413 72.27L411.37 71L403.99 76.74Z" fill="#2E3A59"/>
	<path d="M404 70.73L411.36 65L413 63.73L404 56.73L395 63.73L396.63 65L404 70.73Z" fill="#2E3A59"/>
	<path d="M403.99 18.605L396.62 12.875L395 14.135L404 21.135L413 14.135L411.37 12.865L403.99 18.605Z" fill="#2E3A59"/>
	<path d="M404 16.865L411.36 11.135L413 9.86499L404 2.86499L395 9.86499L396.63 11.135L404 16.865Z" fill="#2E3A59"/>
	<path d="M353.707 236.293C353.316 235.902 352.684 235.902 352.293 236.293L350.699 237.887C349.96 237.667 348.581 237.167 347.707 236.293C346.833 235.419 346.333 234.04 346.113 233.301L347.707 231.707C348.098 231.316 348.098 230.684 347.707 230.293L343.707 226.293C343.316 225.902 342.684 225.902 342.293 226.293L339.581 229.005C339.201 229.385 338.987 229.907 338.995 230.44C339.018 231.864 339.395 236.81 343.293 240.708C347.191 244.606 352.137 244.982 353.562 245.006C353.567 245.006 353.585 245.006 353.59 245.006C354.118 245.006 354.617 244.798 354.995 244.42L357.707 241.708C358.098 241.317 358.098 240.685 357.707 240.294L353.707 236.293ZM353.58 243.005C352.332 242.984 348.062 242.649 344.707 239.293C341.341 235.927 341.015 231.642 340.995 230.419L343 228.414L345.586 231L344.293 232.293C344.054 232.531 343.952 232.875 344.021 233.205C344.045 233.32 344.632 236.047 346.292 237.707C347.952 239.367 350.679 239.954 350.794 239.978C351.127 240.049 351.468 239.946 351.706 239.707L353 238.414L355.586 241L353.58 243.005Z" fill="#2E3A59"/>
	<path fill-rule="evenodd" clip-rule="evenodd" d="M66.75 190H60.9167C59.75 190 58.8333 189.05 58.8333 187.917V178.217C58.2817 177.822 58 177.216 58 176.599C58 176.286 58.0742 175.974 58.2408 175.658C59.1283 174.077 60.035 172.506 60.9617 170.947C61.3467 170.333 61.9708 170 62.6658 170C63.195 170 63.4758 170.17 63.87 170.399C64.4217 170.721 71.37 174.859 74.2967 176.6C74.3692 176.643 77.1017 178.257 77.1708 178.304C77.7233 178.712 78 179.302 78 179.916C78 180.228 77.9233 180.537 77.7542 180.858C76.8675 182.44 75.96 184.011 75.0333 185.57C74.5525 186.337 73.6875 186.645 72.9533 186.477C72.6267 186.672 68.0983 189.602 67.7433 189.783C67.3992 189.96 67.1083 190 66.75 190ZM60.5 181.031V187.917C60.5 188.145 60.6842 188.333 60.9167 188.333H64.74C63.3067 185.912 61.8925 183.477 60.5 181.031ZM61.8383 179.999C61.8825 180.076 66.5725 188.163 66.61 188.215C66.7 188.331 66.8592 188.366 66.9892 188.297C67.1258 188.22 71.2233 185.587 71.2233 185.587C70.6908 185.273 64.4367 181.545 61.8383 179.999ZM62.3875 171.808C61.6267 173.022 59.7217 176.412 59.6917 176.483C59.6333 176.626 59.685 176.788 59.8158 176.87C59.9833 176.97 73.1683 184.826 73.2967 184.846C73.4225 184.864 73.5442 184.808 73.6108 184.701C74.3958 183.381 76.2825 180.076 76.3042 180.033C76.3617 179.89 76.31 179.727 76.1792 179.646C76.0117 179.546 62.86 171.73 62.7708 171.691C62.6208 171.629 62.4667 171.689 62.3875 171.808ZM63.685 174.054C64.605 174.054 65.3517 174.802 65.3517 175.721C65.3517 176.641 64.605 177.387 63.685 177.387C62.765 177.387 62.0183 176.641 62.0183 175.721C62.0183 174.802 62.765 174.054 63.685 174.054Z" fill="#2E3A59"/>
	<path fill-rule="evenodd" clip-rule="evenodd" d="M12.065 170C17.5542 170.035 22 174.503 22 180C22 185.519 17.5192 190 12 190C6.48083 190 2 185.519 2 180C5.23917 180.906 8.15667 178.006 7 175C10.3358 175.589 12.655 172.732 12.065 170ZM13.25 184.167C13.94 184.167 14.5 184.727 14.5 185.417C14.5 186.107 13.94 186.667 13.25 186.667C12.56 186.667 12 186.107 12 185.417C12 184.727 12.56 184.167 13.25 184.167ZM7.5525 181.667C8.4725 181.667 9.21917 182.413 9.21917 183.333C9.21917 184.253 8.4725 185 7.5525 185C6.6325 185 5.88583 184.253 5.88583 183.333C5.88583 182.413 6.6325 181.667 7.5525 181.667ZM17 179.167C17.92 179.167 18.6667 179.913 18.6667 180.833C18.6667 181.753 17.92 182.5 17 182.5C16.08 182.5 15.3333 181.753 15.3333 180.833C15.3333 179.913 16.08 179.167 17 179.167ZM12 178.333C12.46 178.333 12.8333 178.707 12.8333 179.167C12.8333 179.627 12.46 180 12 180C11.54 180 11.1667 179.627 11.1667 179.167C11.1667 178.707 11.54 178.333 12 178.333ZM4.5 175.833C4.96 175.833 5.33333 176.207 5.33333 176.667C5.33333 177.127 4.96 177.5 4.5 177.5C4.04 177.5 3.66667 177.127 3.66667 176.667C3.66667 176.207 4.04 175.833 4.5 175.833ZM15.75 174.167C16.44 174.167 17 174.727 17 175.417C17 176.107 16.44 176.667 15.75 176.667C15.06 176.667 14.5 176.107 14.5 175.417C14.5 174.727 15.06 174.167 15.75 174.167ZM3.25 172.5C3.94 172.5 4.5 173.06 4.5 173.75C4.5 174.44 3.94 175 3.25 175C2.56 175 2 174.44 2 173.75C2 173.06 2.56 172.5 3.25 172.5ZM8.25 170.833C8.94 170.833 9.5 171.393 9.5 172.083C9.5 172.773 8.94 173.333 8.25 173.333C7.56 173.333 7 172.773 7 172.083C7 171.393 7.56 170.833 8.25 170.833ZM5.33333 170C5.79333 170 6.16667 170.373 6.16667 170.833C6.16667 171.293 5.79333 171.667 5.33333 171.667C4.87333 171.667 4.5 171.293 4.5 170.833C4.5 170.373 4.87333 170 5.33333 170Z" fill="#2E3A59"/>
	<path d="M12 57L21.5 62.5V73.5L12 79L2.5 73.5V62.5L12 57ZM12 59.311L4.5 63.653V72.347L12 76.689L19.5 72.347V63.653L12 59.311ZM12 72C10.9391 72 9.92172 71.5786 9.17157 70.8284C8.42143 70.0783 8 69.0609 8 68C8 66.9391 8.42143 65.9217 9.17157 65.1716C9.92172 64.4214 10.9391 64 12 64C13.0609 64 14.0783 64.4214 14.8284 65.1716C15.5786 65.9217 16 66.9391 16 68C16 69.0609 15.5786 70.0783 14.8284 70.8284C14.0783 71.5786 13.0609 72 12 72ZM12 70C12.5304 70 13.0391 69.7893 13.4142 69.4142C13.7893 69.0391 14 68.5304 14 68C14 67.4696 13.7893 66.9609 13.4142 66.5858C13.0391 66.2107 12.5304 66 12 66C11.4696 66 10.9609 66.2107 10.5858 66.5858C10.2107 66.9609 10 67.4696 10 68C10 68.5304 10.2107 69.0391 10.5858 69.4142C10.9609 69.7893 11.4696 70 12 70Z" fill="#2E3A59"/>
	<path fill-rule="evenodd" clip-rule="evenodd" d="M72.0281 61.0866C71.7643 60.9325 71.4909 60.7932 71.209 60.6696L70.7971 58.7863C70.6966 58.3272 70.2901 58 69.8202 58H66.18C65.71 58 65.3035 58.3272 65.2031 58.7863L64.7911 60.6696C64.5254 60.7861 64.2673 60.9165 64.0177 61.0601C63.7556 61.2102 63.5013 61.3755 63.2561 61.5558L61.4192 60.9709C60.9714 60.8283 60.4847 61.0168 60.2498 61.4238L58.4297 64.5763C58.1947 64.9832 58.2748 65.4989 58.6222 65.8154L60.0472 67.1139C60.0144 67.4092 59.9984 67.705 59.9986 68C59.9984 68.295 60.0144 68.5908 60.0472 68.8862L58.6222 70.1846C58.2748 70.5011 58.1947 71.0168 58.4297 71.4238L60.2498 74.5763C60.4847 74.9832 60.9714 75.1717 61.4192 75.0291L63.2561 74.4443C63.504 74.6265 63.7612 74.7935 64.0264 74.9449C64.2733 75.0865 64.5285 75.2153 64.7911 75.3304L65.2031 77.2137C65.3035 77.6728 65.71 78 66.18 78H69.8202C70.2901 78 70.6966 77.6728 70.7971 77.2137L71.209 75.3304C71.4877 75.2082 71.7581 75.0706 72.0191 74.9187C72.2682 74.7743 72.5102 74.6161 72.7438 74.4443L74.5808 75.0291C75.0286 75.1717 75.5152 74.9832 75.7502 74.5763L77.5703 71.4238C77.8052 71.0168 77.7251 70.5011 77.3778 70.1846L75.9528 68.8862C75.9856 68.5904 76.0016 68.2942 76.0013 67.9989C76.0015 67.7043 75.9855 67.4088 75.9528 67.1139L77.3778 65.8154C77.7251 65.4989 77.8052 64.9832 77.5703 64.5763L75.7502 61.4238C75.5152 61.0168 75.0286 60.8283 74.5808 60.9709L72.7438 61.5558C72.513 61.386 72.274 61.2295 72.0281 61.0866ZM68 72C70.2091 72 72 70.2091 72 68C72 65.7909 70.2091 64 68 64C65.7909 64 64 65.7909 64 68C64 70.2091 65.7909 72 68 72Z" fill="#2E3A59"/>
	<path fill-rule="evenodd" clip-rule="evenodd" d="M128 68C128 70.2091 126.209 72 124 72C121.791 72 120 70.2091 120 68C120 65.7909 121.791 64 124 64C126.209 64 128 65.7909 128 68ZM126 68C126 69.1046 125.105 70 124 70C122.895 70 122 69.1046 122 68C122 66.8954 122.895 66 124 66C125.105 66 126 66.8954 126 68Z" fill="#2E3A59"/>
	<path fill-rule="evenodd" clip-rule="evenodd" d="M114.43 64.5763L116.25 61.4238C116.485 61.0168 116.971 60.8283 117.419 60.9709L119.256 61.5558C119.501 61.3755 119.756 61.2102 120.018 61.0601C120.267 60.9165 120.525 60.7861 120.791 60.6696L121.203 58.7863C121.303 58.3272 121.71 58 122.18 58H125.82C126.29 58 126.697 58.3272 126.797 58.7863L127.209 60.6696C127.491 60.7932 127.764 60.9325 128.028 61.0866C128.274 61.2295 128.513 61.386 128.744 61.5558L130.581 60.9709C131.029 60.8283 131.515 61.0168 131.75 61.4238L133.57 64.5763C133.805 64.9832 133.725 65.4989 133.378 65.8154L131.953 67.1139C131.985 67.4088 132.002 67.7043 132.001 67.9989C132.002 68.2942 131.986 68.5904 131.953 68.8862L133.378 70.1846C133.725 70.5011 133.805 71.0168 133.57 71.4238L131.75 74.5763C131.515 74.9832 131.029 75.1717 130.581 75.0291L128.744 74.4443C128.51 74.6161 128.268 74.7743 128.019 74.9187C127.758 75.0706 127.488 75.2082 127.209 75.3304L126.797 77.2137C126.697 77.6728 126.29 78 125.82 78H122.18C121.71 78 121.303 77.6728 121.203 77.2137L120.791 75.3304C120.529 75.2153 120.273 75.0865 120.026 74.9449C119.761 74.7935 119.504 74.6265 119.256 74.4443L117.419 75.0291C116.971 75.1717 116.485 74.9832 116.25 74.5763L114.43 71.4238C114.195 71.0168 114.275 70.5011 114.622 70.1846L116.047 68.8862C116.014 68.5908 115.998 68.295 115.999 68C115.998 67.705 116.014 67.4092 116.047 67.1139L114.622 65.8154C114.275 65.4989 114.195 64.9832 114.43 64.5763ZM125.015 60L125.473 62.0923L126.406 62.5013C126.617 62.5938 126.822 62.6982 127.02 62.8137L127.023 62.8156C127.207 62.9228 127.386 63.04 127.559 63.167L128.38 63.7706L130.421 63.1208L131.436 64.8792L129.853 66.3217L129.965 67.3343C129.989 67.5551 130.001 67.7764 130.001 67.9973L130.001 68.001C130.002 68.2225 129.99 68.4444 129.965 68.6657L129.853 69.6783L131.436 71.1208L130.421 72.8792L128.38 72.2294L127.559 72.833C127.384 72.9616 127.203 73.0801 127.016 73.1884L127.013 73.1902C126.817 73.3042 126.615 73.4072 126.406 73.4987L125.473 73.9077L125.015 76H122.985L122.527 73.9077L121.594 73.4987C121.398 73.4125 121.206 73.316 121.021 73.2099L121.018 73.208C120.819 73.0945 120.626 72.9694 120.441 72.833L119.62 72.2294L117.579 72.8792L116.564 71.1208L118.147 69.6783L118.035 68.6657C118.01 68.4446 117.998 68.223 117.999 68.0019L117.999 67.9981C117.998 67.777 118.01 67.5554 118.035 67.3343L118.147 66.3217L116.564 64.8792L117.579 63.1208L119.62 63.7706L120.441 63.167C120.624 63.0321 120.815 62.9082 121.011 62.7957L121.015 62.7939C121.202 62.6862 121.395 62.5885 121.594 62.5013L122.527 62.0923L122.985 60H125.015Z" fill="#2E3A59"/>
</svg>
