<svg width="100" height="100" viewBox="0 0 100 100" fill="none" xmlns="http://www.w3.org/2000/svg">
    <path d="M40.5 53C41.8807 53 43 51.8807 43 50.5C43 49.1193 41.8807 48 40.5 48C39.1193 48 38 49.1193 38 50.5C38 51.8807 39.1193 53 40.5 53Z" fill="black" fill-opacity="0.19"/>
    <path d="M50.5 53C51.8807 53 53 51.8807 53 50.5C53 49.1193 51.8807 48 50.5 48C49.1193 48 48 49.1193 48 50.5C48 51.8807 49.1193 53 50.5 53Z" fill="black" fill-opacity="0.19"/>
    <path d="M60.5 53C61.8807 53 63 51.8807 63 50.5C63 49.1193 61.8807 48 60.5 48C59.1193 48 58 49.1193 58 50.5C58 51.8807 59.1193 53 60.5 53Z" fill="black" fill-opacity="0.19"/>
</svg>
